<svg width="40" height="23" viewBox="0 0 40 23" fill="none" xmlns="http://www.w3.org/2000/svg">
<path d="M2.13346 0.0650262C1.3274 0.254409 0.591761 0.877792 0.223943 1.67478C0.0439476 2.07721 0.0048181 2.25081 0.012644 2.81896C0.012644 4.08151 -0.738643 3.22929 9.34112 13.4086C15.4218 19.5477 18.4192 22.5226 18.6618 22.6568C19.2331 22.9645 19.8983 23.075 20.493 22.9487C20.7591 22.8935 21.1426 22.7593 21.3382 22.6568C21.5808 22.5226 24.5782 19.5477 30.6589 13.4086C40.7386 3.22929 39.9874 4.08151 39.9874 2.81896C39.9874 2.25081 39.9561 2.07721 39.7682 1.65899C39.1109 0.207063 37.3579 -0.40843 35.9257 0.309645C35.7222 0.412227 32.8893 3.21351 27.8103 8.32683L20 16.1941L12.1897 8.32683C7.08726 3.18983 4.27776 0.412227 4.07429 0.309645C3.47952 0.0176806 2.74388 -0.0770105 2.13346 0.0650262Z" fill="currentColor"/>
</svg>
